<svg xmlns="http://www.w3.org/2000/svg" width="256" height="256"><path fill-opacity=".016" d="M0 128.004v128.004l128.25-.254 128.25-.254.254-127.75L257.008 0H0v128.004m.485.496c0 70.4.119 99.053.265 63.672.146-35.38.146-92.98 0-128C.604 29.153.485 58.1.485 128.5" fill="#1976D2" fill-rule="evenodd"/><path fill-opacity=".223" d="M102.5 1.896C91.64 6.924 86.801 20.054 91.739 31.095c1.084 2.423 2.936 5.262 4.116 6.31 3.027 2.689 2.667 1.394-1.101-3.952-2.894-4.105-3.247-5.346-3.25-11.439-.004-6.002.367-7.362 3.038-11.166 9.27-13.201 27.536-11.588 34.963 3.088 1.317 2.602 1.616 4.966 1.233 9.737-.284 3.534-.118 6.062.378 5.755 1.73-1.069.982-13.315-1.057-17.313C124.81 1.827 112.505-2.736 102.5 1.896m1.528 6.217c-1.359.543-2.815 1.527-3.234 2.187-1.103 1.734-.967 6.475.206 7.2.55.34 1 3.313 1 6.607 0 5.161.495 6.763 3.579 11.583 3.961 6.193 4.014 6.043-3.259 9.304-3.576 1.604-6.32 4.4-6.32 6.44 0 .311.822.566 1.826.566s2.782 1.019 3.952 2.264c1.837 1.955 2.046 3.044 1.534 8-.486 4.713-.923 5.736-2.452 5.736-1.042 0-1.86-.707-1.86-1.607 0-1.09-.537-1.401-1.67-.966-.919.352-1.967.16-2.33-.427-1.065-1.723-4 .02-4 2.375 0 1.188-1.155 3.861-2.568 5.94-1.412 2.078-3.229 6.007-4.038 8.732-.81 2.724-1.875 4.953-2.368 4.953-3.851 0-6.117-2.502-11.482-12.678-4.946-9.382-11.183-18.016-12.247-16.952-.187.187.091 1.417.618 2.735.527 1.317.996 1.945 1.042 1.395.047-.55 3.666 5.068 8.043 12.485 7.317 12.398 7.8 13.545 5.98 14.218-1.188.439-1.975 1.646-1.967 3.015.007 1.255-.744 5.519-1.67 9.475-1.406 6.013-1.464 7.457-.352 8.796.731.881 1.895 1.385 2.586 1.12 2.16-.829 2.402 2.148.384 4.713-2.833 3.602-4.621 11.7-5.449 24.678-.403 6.325-1.246 12.135-1.872 12.912-.96 1.188-.448 1.319 3.231.829 6.106-.815 7.02-2.044 4.276-5.756-2.679-3.624-1.863-6.131.997-3.06 2.282 2.449 4.856 2.723 4.856.516 0-.857.47-1.269 1.044-.914.574.355 1.733.073 2.576-.627 1.243-1.031 1.686-1.022 2.349.049.624 1.011 1.085.819 1.959-.814.936-1.749.865-2.135-.393-2.135-.885 0-1.535-.875-1.535-2.068 0-2.042.041-2.039 3.239.238 2.564 1.826 2.877 2.377 1.5 2.642-.956.184-1.739 1.177-1.739 2.206 0 3.471-4.211 7.158-8.309 7.274-2.481.07-3.596.514-3.291 1.309.254.662.156 1.51-.219 1.885-.375.374-.737 1.093-.806 1.597-.069.504-.215 1.03-.324 1.167-.11.137-.403 1.355-.651 2.707-.248 1.351-.845 2.701-1.327 3-.482.298-1.117 2.074-1.411 3.945-.295 1.871-1.065 3.729-1.712 4.129-.867.536-.818.869.187 1.269.968.385 1.001.565.113.621-.687.043-1.25.712-1.25 1.485 0 .933.701 1.223 2.081.863 1.515-.397 1.934-1.102 1.543-2.598-.477-1.825.298-4.287 3.523-11.189.518-1.109 1.018-3.02 1.11-4.245.202-2.683 2.067-2.576 6.243.358 2.272 1.596 4.068 2.006 7.401 1.691 6.798-.642 8.213 3.907 1.601 5.148-1.847.346-4.789 1.965-6.536 3.598-1.748 1.632-3.527 2.968-3.955 2.968-1.393 0-1.741 3.528-.466 4.719.683.639 1.44.963 1.681.721.242-.241.374.452.294 1.54-.08 1.089-.527 2.326-.993 2.75-.466.423-.553.255-.194-.374.423-.74-.226-1.093-1.839-1-2.815.163-3.033.63-1.244 2.667.688.783.237.579-1-.455-1.988-1.659-2.657-1.509-2.415.543.04.336-.919.561-2.131.5-1.869-.094-2.155-.605-1.879-3.361.179-1.788-.058-3.25-.527-3.25-1.349 0-4.206 3.753-3.466 4.552.367.397-.007.435-.832.086a68.513 68.513 0 0 0-3.25-1.254c-1.289-.455-1.746-1.707-1.735-4.751.011-2.76.307-3.673.893-2.748.703 1.111 1.096.976 1.985-.684.609-1.138 1.107-2.324 1.107-2.635 0-1.115-2.845-.54-3.388.684-.305.688-.275-.999.067-3.747.569-4.567.48-4.88-1.028-3.628-1.157.96-1.651 2.966-1.651 6.7 0 5.823-1.426 9.989-4.319 12.622-1.093.995-1.559 2.236-1.126 3 .595 1.049.475 1.058-.613.048-1.063-.986-1.124-2.111-.286-5.25.586-2.197.91-3.995.718-3.995-.456 0-3.341 6.731-4.428 10.335-.705 2.339-.616 2.636.51 1.701.949-.787 1.566-.81 2.02-.075.81 1.312-2.92 6.243-3.976 5.255-1.9-1.777 1.006 7.805 4.238 13.974 1.97 3.76 3.847 8.473 4.172 10.473.698 4.296 3.131 5.108 9.783 3.269 4.092-1.132 4.305-1.067 8.905 2.704 4.553 3.732 4.973 3.864 12.305 3.864h7.591l1.074-7.15c.59-3.932.986-9.332.878-12-.15-3.715.008-4.307.674-2.527.478 1.277.945 4.334 1.038 6.792.166 4.373 1.842 7.508 1.842 3.444 0-1.132.45-2.059 1-2.059s1.007 2.363 1.015 5.25c.011 3.758.291 4.824.985 3.75 1.164-1.802 1.318-7.685.219-8.365-.43-.266-.891-1.917-1.025-3.67-.133-1.753-.707-4.15-1.274-5.326-1-2.075-.984-2.081.525-.198.855 1.068 1.555 2.305 1.555 2.75 0 .445.723.809 1.607.809 1.002 0 1.395.553 1.044 1.468-.31.807-.133 1.734.393 2.059 1.271.786 1.22 7.648-.083 11.075-.997 2.622-.111 4.333 2.27 4.383 2.51.052.541-17.137-2.367-20.655-1.246-1.508-1.169-1.53.886-.25 2.522 1.57 5.256 6.696 5.677 10.641.444 4.165-1.472 10.159-3.448 10.786-.987.313-2.038 1.204-2.336 1.98-.379.989-.033 1.23 1.158.807 2.797-.995 4.244-2.467 5.614-5.714.97-2.3 2.345-3.397 5.426-4.33 7.024-2.127 7.812-1.81 9.709 3.9 1.219 3.671 3.684 7.28 8.58 12.56 3.779 4.075 6.907 8.17 6.951 9.099.264 5.493.592 7.264 1.516 8.188.568.568 5.324 1.314 10.57 1.659 8.85.581 9.943.44 15.185-1.96 3.106-1.422 5.648-2.898 5.648-3.28 0-1.626-3.79-3.358-7.5-3.428-6.326-.119-12.389-1.578-14.5-3.488-1.916-1.734-1.91-1.783.437-3.629 1.308-1.029 3.966-1.871 5.906-1.871 4.138 0 8.657-1.532 8.657-2.935 0-.541-1.089-2.015-2.419-3.275-5.277-4.995-6.164-20.403-2.588-44.916 3.315-22.72 4.116-25.71 8.781-32.779 3.639-5.516 4.226-7.145 4.226-11.74 0-3.378.93-7.657 2.537-11.671l2.537-6.338 4.713.236c6.151.308 13.315-1.358 15.254-3.548.848-.957 2.536-2.273 3.752-2.923 1.216-.651 2.84-2.691 3.61-4.534 1.204-2.881 1.198-4.313-.041-10.214-.792-3.775-1.379-9.113-1.304-11.863.075-2.75-.342-8.162-.926-12.027-.584-3.865-.826-7.929-.537-9.031.477-1.824.018-2.012-5.094-2.086-3.091-.045-6.606-.61-7.814-1.256-1.859-.995-3.051-.71-7.797 1.86-3.081 1.669-7.579 4.761-9.996 6.873-2.417 2.111-5.45 4.106-6.74 4.434l-2.346.596.716-16.749c.621-14.527.498-17.172-.93-19.932-.905-1.75-2.272-3.182-3.038-3.182-2.509 0-4.558 1.188-3.896 2.259.391.633.165.751-.569.298-.669-.414-1.976-.089-2.904.722-.928.811-3.283 2.038-5.234 2.725-3.411 1.203-3.948 1.036-14.084-4.377C133.073 39.532 127.158 37 125.725 37c-3.102 0-4.34-1.554-2.757-3.462 1.487-1.791-.261-7.58-5.159-17.087-4.497-8.73-7.797-10.726-13.781-8.338m-.334 12.526c-1.134 1.134.356 2.361 2.865 2.361 1.503 0 2.441-.576 2.441-1.5 0-1.497-4.018-2.148-5.306-.861M109 29c-1.293.835-1.266.971.191.985.93.008 1.969-.435 2.309-.985.782-1.266-.542-1.266-2.5 0m-4.187 1.683c.721.289 1.584.253 1.916-.079.332-.332-.258-.568-1.312-.525-1.165.048-1.402.285-.604.604M107 35c0 .55.477 1 1.059 1s.781-.45.441-1-.816-1-1.059-1-.441.45-.441 1m5.226 8.579c.95.991 1.942 1.587 2.205 1.324.263-.263-.514-1.074-1.726-1.803-2.107-1.265-2.128-1.243-.479.479m44.483 7.921a91.456 91.456 0 0 1-1.33 3.5c-.501 1.214-.292 1.189 1.097-.132.944-.897 1.542-2.472 1.33-3.5-.365-1.762-.427-1.755-1.097.132M141 54.609c0 1.408 2.164 3.391 3.7 3.391.715 0 1.3-.477 1.3-1.059s-.518-.739-1.152-.347c-.633.391-1.758-.118-2.5-1.132-.741-1.015-1.348-1.398-1.348-.853m-40.333 3.058c-.367.366-.621 2.054-.565 3.75l.103 3.083.821-3.493c.855-3.64.766-4.466-.359-3.34m26.333.392c0 .582.45.781 1 .441s1-.816 1-1.059-.45-.441-1-.441-1 .477-1 1.059M138.948 57c-.843 3.742-.824 6 .049 6 1.649 0 2.287-2.678 1.117-4.689-.579-.996-1.104-1.586-1.166-1.311m-26.289 2.458c-2.915 2.209-1.376 5.301 2.365 4.752 3.071-.451 4.69-1.829 3.522-2.998-.36-.36-1.03-.047-1.489.695-1.19 1.926-3.257.299-2.53-1.991.716-2.258.56-2.297-1.868-.458m-52.58 4.601c-.043.857.621 2.432 1.476 3.5 1.53 1.91 1.541 1.909.635-.059a61.867 61.867 0 0 1-1.476-3.5c-.48-1.296-.567-1.288-.635.059m32.257 6.508c-.888 2.315 1.077 3.845 2.592 2.019C96.21 71.043 95.629 69 93.91 69c-.535 0-1.243.705-1.574 1.567M115 73.059c0 .582.45.781 1 .441s1-.816 1-1.059-.45-.441-1-.441-1 .477-1 1.059m-27.763 4.103c-.68.681-1.237 1.919-1.237 2.752 0 1.311.218 1.297 1.616-.101.889-.889 1.446-2.128 1.238-2.752-.274-.82-.723-.792-1.617.101m7.499 2.598c-.97 2.057-3.332 5.928-5.25 8.603C87.569 91.038 86 93.618 86 94.096 86 95.675 95.865 100 99.467 100c3.488 0 3.533-.054 3.547-4.25.007-2.338.276-5.231.598-6.429.505-1.884.13-2.223-2.764-2.5L97.5 86.5l.138-5.25c.075-2.888-.15-5.245-.5-5.24-.351.006-1.432 1.693-2.402 3.75m19.697 8.349c-1.143 1.849.613 7.845 2.61 8.914 1.076.576 1.957.722 1.957.324 0-.398.9.242 2 1.423 2.554 2.742 2.517 3.178-.214 2.464-3.205-.838-7.678-6.143-8.393-9.952-.454-2.423-1.144-3.282-2.636-3.282-1.775 0-1.956.479-1.492 3.939.409 3.05.1 4.325-1.368 5.655-3.502 3.169-2.436 5.828 3.353 8.366 2.888 1.266 6.15 2.7 7.25 3.188 1.189.527 3.341.495 5.307-.078 1.819-.53 3.991-.701 4.825-.381.942.362 1.445.057 1.325-.803-.389-2.786.072-3.99 1.293-3.377.688.346-.125-.64-1.805-2.191-2.559-2.359-2.948-3.306-2.392-5.818l.663-3 1.219 3.192c.671 1.755 1.973 3.342 2.892 3.526 3.015.603 5.733-9.136 3.018-10.813-.661-.409-.885-.278-.523.307.347.561-.227 1.797-1.276 2.746-1.827 1.654-1.882 1.632-1.319-.522.445-1.7.264-2.048-.739-1.428-.954.589-1.155.371-.715-.778.416-1.082.068-1.583-1.08-1.553-.931.025-3.121-.279-4.866-.676-2.935-.666-3.206-.506-3.609 2.139-.405 2.66-.488 2.708-1.175.679-.842-2.482-3.169-3.734-4.11-2.21M120 93.378c0 .207.787.995 1.75 1.75 1.586 1.243 1.621 1.208.378-.378-1.307-1.666-2.128-2.195-2.128-1.372m-9.165 7.375c-.916.198-1.871.898-2.123 1.554-.311.812.939 1.193 3.915 1.193 2.405 0 4.373-.061 4.373-.135 0-.81-4.901-2.886-6.165-2.612m79.664 6.497c-.945 2.338-1.942 4.813-2.216 5.5-.353.889.81 1.25 4.031 1.25 4.195 0 4.574-.215 5.172-2.936.701-3.191-1.712-8.064-3.992-8.064-.702 0-2.05 1.912-2.995 4.25m-60.311 16.489c.415 2.154 3.812 2.993 3.812.941 0-.806-.712-1.739-1.582-2.073-2.348-.901-2.597-.775-2.23 1.132m-53.991 8.864c-3.149 3.149-4.05 7.189-1.49 6.681.607-.12.869.62.593 1.676-.372 1.423-.037 1.805 1.353 1.542 1.016-.192 2.208-.383 2.649-.425.441-.043 1.273-1.427 1.848-3.077.575-1.65 1.478-3 2.007-3 .528 0 .702-.419.386-.931-.317-.512-.147-1.196.377-1.52.524-.323.89-1.423.813-2.444-.232-3.084-4.745-2.293-8.536 1.498m12.428-.805c-.271.439-.08 1.451.426 2.25.717 1.134.922.959.934-.798.015-2.313-.493-2.856-1.36-1.452m31.099 1.954c-1.895 2.094-2.315 5.248-.699 5.248 1.131 0 3.221-4.763 2.732-6.228-.169-.509-1.084-.068-2.033.98m-24.645 3.831c.048 1.165.285 1.402.604.605.289-.722.253-1.585-.079-1.917-.332-.332-.568.258-.525 1.312m-3.047 4.667c.042 1.688 4.912 7.139 5.686 6.365.338-.338.229-.615-.242-.615-.472 0-.029-.607.986-1.348 1.814-1.327 1.308-4.246-.539-3.105-.516.319-1.642-.123-2.502-.983-1.883-1.883-3.433-2.026-3.389-.314m15.126 8.75c0 1.375.227 1.938.504 1.25.278-.687.278-1.812 0-2.5-.277-.687-.504-.125-.504 1.25m-2.033 5.625c-.66 1.448-.971 2.863-.69 3.143.28.28.984-.74 1.565-2.268 1.372-3.608.684-4.296-.875-.875M100 158.378c0 .207.787.995 1.75 1.75 1.586 1.243 1.621 1.208.378-.378-1.307-1.666-2.128-2.195-2.128-1.372m16.639 3.316c-1.126 1.126-.685 2.306.861 2.306.825 0 1.5-.423 1.5-.941 0-1.261-1.562-2.164-2.361-1.365m7.361 1.657c0 .193.497 1.777 1.105 3.521 2.154 6.179-4.218 8.428-10.028 3.539L112 167.822l.011 3.339c.006 1.836.701 5.589 1.544 8.339 1.626 5.304 1.267 13.113-.794 17.277-.766 1.546-.819 3.151-.165 5 .942 2.666 1.134 2.723 9.214 2.723 5.979 0 8.49.384 9.12 1.396.478.768 1.588 1.119 2.469.781 2.622-1.006 4.367.263 5.007 3.642.331 1.75.792 4.159 1.026 5.354.233 1.195 1.021 3.314 1.751 4.707 1.184 2.26 1.294 1.647 1.011-5.673-.47-12.155-5.101-48.89-6.354-50.4-.936-1.127-11.84-2.008-11.84-.956M57.823 165.5a81.13 81.13 0 0 1-1.333 4c-.631 1.714-.494 1.676.957-.269.931-1.247 1.53-3.047 1.332-4-.312-1.501-.439-1.466-.956.269m57.249 1.635c.884 1.651 1.33 1.832 1.97.798 1.024-1.658.313-2.933-1.636-2.933-1.198 0-1.261.403-.334 2.135m38.042-.205c-.989.611-1.605 6.744-2.41 24-1.139 24.414-.673 30.4 3.096 39.816 1.723 4.305 2.583 5.061 3.7 3.254.34-.55.196-1-.319-1-1.798 0-2.939-7.613-2.019-13.477.903-5.759.714-51.981-.217-52.911-.276-.277-1.101-.134-1.831.318m-94.016 17.887c-1.926 3.6-.279 18.87 2.623 24.316 2.83 5.31 7.279 8.236 7.279 4.787 0-1.364.413-1.79 1.25-1.287.96.576.986.416.115-.691-.624-.793-1.597-3.467-2.162-5.942-.566-2.475-2.182-7.2-3.592-10.5-1.41-3.3-2.581-6.9-2.603-8-.021-1.1-.433-2.623-.916-3.385-.703-1.11-1.099-.97-1.994.702m35.917 3.85c.009 1.558.435 3.495.947 4.305.803 1.27 1.017 1.246 1.563-.177.909-2.368.188-6.068-1.275-6.55-.805-.265-1.245.597-1.235 2.422m5.492 7.322c-.35.566.051.734.941.393 1.732-.665 2.049-1.382.611-1.382-.518 0-1.216.445-1.552.989m-4.507.609c0 .961 4.236 4.499 4.76 3.975.242-.242.145-.917-.216-1.501-.831-1.345-4.544-3.367-4.544-2.474m19.733 10.771c-3.481 1.295-2.993 3.115.852 3.182 3.124.055 5.415-1.147 5.415-2.84 0-.574-.296-.748-.658-.386-.362.362-1.149.288-1.75-.164-.601-.452-2.337-.359-3.859.208M53 225.046c-1.095.741-.691.834 1.5.344 3.677-.823 4.475-1.395 1.917-1.375-1.055.009-2.592.472-3.417 1.031m-7.187.637c.721.289 1.584.253 1.916-.079.332-.332-.258-.568-1.312-.525-1.165.048-1.402.285-.604.604m50.133 4.925-3.446 3.608 3.5-.714c4.008-.816 6.396-2.502 3.545-2.502-1.792 0-1.793-.068-.045-2 3.234-3.574-.004-2.109-3.554 1.608" fill="#1976D2" fill-rule="evenodd"/><path fill-opacity=".508" d="M104 8.729c-2.109.803-2.967 2.354-2.985 5.399-.021 3.66 2.208 5.358 5.042 3.842 1.487-.796 1.967-.818 1.505-.07-.374.605-.226 1.1.329 1.1s1.5-.788 2.098-1.75c.843-1.354 1.009-.449.733 4-.274 4.432-.035 5.75 1.044 5.75 2.793 0 .509 2.408-3.573 3.769l-4.182 1.394 2.495 4.256c3.135 5.35 3.116 5.922-.256 7.662-1.513.78-3.346 2.218-4.075 3.196-.729.977-2.033 1.652-2.897 1.5-2.307-.407-2.719 1.948-.465 2.664 3.429 1.088 4.939 3.931 5.626 10.595.67 6.498.66 6.534-1.817 6.426-1.371-.06-3.196-.694-4.057-1.408-1.137-.944-1.565-.976-1.565-.117 0 .649-.483.882-1.074.517-.652-.403-.604.089.123 1.253.967 1.548.854 2.578-.587 5.355-.982 1.891-1.974 2.876-2.207 2.188-.53-1.571-2.255-1.645-2.255-.096 0 1.654-4.996 11.985-6.545 13.534-.719.719-1.943 1.062-2.72.764-.778-.299-1.992.152-2.697 1.002-.706.851-1.773 1.546-2.373 1.546-.599 0 .469-1.332 2.373-2.959 1.904-1.628 2.969-2.978 2.367-3-.602-.023-1.91.859-2.905 1.959-.995 1.1-2.66 2-3.699 2-1.039 0-1.797.563-1.684 1.25.112.688-.352 2.6-1.03 4.25-1.566 3.805-2.868 10.658-2.331 12.268.226.677 1.287 1.232 2.359 1.232 2.874 0 3.359 2.581 1.039 5.532-1.121 1.424-2.493 4.925-3.048 7.779-1.139 5.85-3.339 29.789-2.788 30.34.197.197 1.781-.138 3.52-.744 3.416-1.191 4.025-2.946 1.694-4.88-3.206-2.661.611-14.913 5.773-18.528 4.101-2.872 11.673-.804 11.687 3.192.004 1.205.458 2.469 1.008 2.809.55.34 1-.309 1-1.441 0-1.132.45-2.059 1-2.059s1 .927 1 2.059c0 1.132.45 1.781 1 1.441.55-.34 1 .154 1 1.097s1.125 3.189 2.5 4.992c2.889 3.788 3.181 6.601.882 8.509-1.4 1.162-1.939.942-3.985-1.624-3.078-3.86-7.397-4.412-7.397-.945 0 1.629-.444 2.238-1.371 1.882-.754-.289-1.615.111-1.914.889-.299.779-2.044 1.75-3.879 2.158l-3.336.743 2.845.838c1.59.469 3.886.444 5.202-.057 1.82-.692 2.239-.587 1.838.458-.353.919 1.087 1.888 4.484 3.016 5.403 1.795 6.399 3 4.893 5.921-.694 1.344-.586 2.114.38 2.711 1.076.665.966 1.113-.55 2.221-2.018 1.475-1.438 3.691.967 3.691.833 0 1.441.961 1.441 2.277 0 2.718 2.767 6.985 4.025 6.208.488-.302.616-1.322.284-2.267-.423-1.205-.277-1.419.488-.718.601.55 1.361 2.533 1.689 4.407.528 3.011.416 3.256-.968 2.108-3.026-2.511-2.501-.281 1.018 4.328 3.372 4.416 5.464 5.828 5.464 3.688 0-.532.675-.709 1.5-.393 2.046.785 2.025-7.336-.037-14.133-.868-2.861-1.237-6.258-.864-7.955l.65-2.961 1.775 2.192c2.178 2.69 6.598 4.474 9.108 3.677 1.882-.597 2.627-2.458.985-2.458-1.403 0-1.953-4.852-.728-6.425.856-1.1 2.483-1.273 7.089-.752l5.979.677 1.195 5.389c1.443 6.507 3.056 20.234 4.361 37.111.532 6.875 1.146 14.132 1.365 16.127.362 3.291.2 3.576-1.74 3.077-1.891-.487-1.981-.359-.776 1.11 1.868 2.277.789 4.669-1.801 3.992-1.133-.297-2.117-1.162-2.186-1.923-.181-2.002-.372-2.585-1.828-5.569-.72-1.478-.998-3.5-.616-4.494.634-1.652.849-1.601 2.512.604l1.818 2.411-.428-3.888c-.236-2.139-.745-4.126-1.131-4.418-1.233-.929-1.323-3.222-.097-2.464.712.44.979.181.696-.676-.538-1.632-4.229-2.362-6.624-1.31-.922.405-2.286.635-3.03.511-.744-.124-2.032.036-2.863.354-1.217.467-1.27.868-.274 2.068 1.043 1.257.789 1.501-1.638 1.57-1.579.045-4.091.283-5.581.529-2.222.366-2.992-.099-4.276-2.582-.862-1.666-1.791-3.029-2.066-3.029-.275 0 .148 1.253.94 2.785.792 1.531 1.753 4.456 2.137 6.5.785 4.186 1.12 4.308 6.128 2.215 6.035-2.521 6.876-2.105 9.405 4.659 1.658 4.433 3.671 7.445 7.185 10.75 6.332 5.956 8.756 9.966 8.756 14.484 0 4.43 2.252 5.607 10.732 5.607 7.095 0 6.454-.79-1.151-1.419-5.773-.477-8.227-1.445-5.831-2.301 1.936-.692 1.48-3.656-.966-6.281-1.654-1.776-1.789-2.215-.532-1.732 2.999 1.15 2.698-.801-.33-2.141-3.219-1.425-3.135-3.256.111-2.407 1.833.479 3.609 2.559 3.868 4.531.197 1.497 1.599.684 1.603-.929.003-.912.678-1.874 1.5-2.139.823-.265 1.792-.936 2.154-1.492.362-.556 3.211-1.222 6.331-1.481 6.495-.538 7.854-2.15 4.671-5.538-5.301-5.644-6.541-18.967-3.598-38.671 4.274-28.617 5.251-32.975 8.256-36.808 4.448-5.677 5.474-8.188 5.817-14.24.174-3.071 1.452-8.603 2.841-12.292l2.525-6.709-2.565-.976c-1.412-.536-3.186-.975-3.944-.975s-2.032-.933-2.831-2.073c-1.257-1.795-2.784-2.532-5.911-2.85-.412-.043-.75-.479-.75-.971 0-.504 1.741-.451 4 .122 2.241.569 4 1.621 4 2.394 0 .758.702 1.378 1.559 1.378s1.281-.45.941-1c-.892-1.444 2.854-1.232 4.425.25 1.06 1 1.417 1 1.783 0 .291-.792 2.17-1.188 5.125-1.082 4.355.157 4.417.194.917.56-3.554.372-5.436 2.272-2.25 2.272.825 0 1.514.563 1.532 1.25.019.763.549.569 1.36-.5.731-.962 1.841-1.75 2.468-1.75s1.14-.675 1.14-1.5c0-1.399.974-1.842 2.75-1.25.412.138.696.475.631.75-.066.275-.379 1.897-.696 3.603l-.576 3.104 3.445-1.562c1.895-.859 3.446-1.929 3.446-2.378 0-.449 1.103-1.236 2.452-1.749 1.349-.513 3.202-2.382 4.119-4.155 1.433-2.771 1.5-3.969.478-8.534-.653-2.921-1.397-9.027-1.653-13.57-.256-4.542-.711-10.284-1.012-12.759-.302-2.475-.507-6.021-.456-7.88.075-2.787-.154-3.177-1.306-2.221-1.605 1.332-10.005-.148-12.494-2.2-1.123-.926-1.545-.928-1.855-.007-.22.655-2.308 2.115-4.639 3.243-2.331 1.128-6.614 4.08-9.518 6.558-2.903 2.479-6.255 4.507-7.448 4.508-2.154.001-2.166-.113-1.837-17.414.411-21.606-.465-24.12-6.833-19.586-1.893 1.348-2.65 2.615-2.319 3.881.271 1.034-1.057 5.231-2.95 9.328-2.624 5.679-4.322 7.993-7.146 9.739-2.353 1.454-3.505 2.813-3.156 3.722.306.796.111 1.161-.438.822-.544-.336-.989-1.286-.989-2.111 0-.825-.399-1.253-.887-.952-1.779 1.1-3.201-2.067-2.159-4.808.91-2.395 2.089-3.12 4.4-2.706 3.624.65 10.646-7.493 10.646-12.346 0-2.918-.714-3.159-3.527-1.189-2.378 1.665-3.89 1.176-17.4-5.631-5.186-2.612-10.746-4.75-12.357-4.75-2.435 0-2.792-.296-2.114-1.75 1.37-2.936.596-10.159-1.396-13.033-1.035-1.495-2.738-4.832-3.785-7.416-2.406-5.94-6.942-8.158-12.421-6.072m-.557 2.689c-2.29 1.674-1.101 3.487 1.295 1.975 1.873-1.181 2.874-3.393 1.536-3.393-.49 0-1.765.638-2.831 1.418m-.633 13.106c-1.066 1.066.475 5.476 1.914 5.476.948 0 1.269-.575.883-1.582-.334-.87-.607-2.22-.607-3 0-1.409-1.189-1.895-2.19-.894M91 28.642c0 .537.7 1.849 1.555 2.917 1.467 1.83 1.487 1.798.365-.559-1.458-3.061-1.92-3.628-1.92-2.358M119.158 30c0 1.375.227 1.938.504 1.25.278-.687.278-1.812 0-2.5-.277-.687-.504-.125-.504 1.25m-4.88 1.426c-1.651.914-1.931 1.521-1.092 2.36s.78 1.59-.23 2.922c-1.05 1.383-1.058 1.525-.036.62.728-.644 1.944-.934 2.702-.643 1.014.389 1.378-.424 1.378-3.078 0-1.984-.112-3.563-.25-3.509-.138.054-1.25.652-2.472 1.328m-5.64 2.097c-1.794 1.311-1.776 1.474.496 4.665 1.294 1.818 2.238 3.81 2.097 4.426-.444 1.93 2.138 3.172 5.519 2.655 2.011-.307 3.25-1.071 3.25-2.005 0-1.212-.288-1.27-1.466-.292-1.02.847-2.313.935-4.248.29l-2.781-.927 2.248-1.203c2.877-1.539 2.88-2.813.006-2.711-1.777.063-2.252-.482-2.296-2.634-.071-3.519-.566-3.916-2.825-2.264m-.64 10.977c-.129.55-.187 1.321-.128 1.714.058.393-.637.429-1.546.08-1.108-.425-1.414-.249-.929.536.398.644 1.731 1.17 2.964 1.17 1.233 0 2.836.563 3.563 1.25 1.092 1.032 1.118.853.15-1.028-.645-1.253-1.566-2.035-2.046-1.738-.481.297-1.081-.253-1.334-1.222-.253-.969-.565-1.312-.694-.762m-6.428 4.387c-.301.487.122 1.442.941 2.122.819.68 1.523 1.068 1.566.863.651-3.169.541-3.872-.606-3.872-.744 0-1.6.399-1.901.887m39.135 6.224c1.759 3.525 3.142 4.442 4.559 3.025 1.287-1.287-1.323-4.657-4.187-5.406-1.651-.431-1.68-.242-.372 2.381m-14.737.486c-.03 2.769-.099 2.813-1.5.962-1.449-1.916-1.468-1.916-1.468.05 0 1.095-.415 2.418-.923 2.941-1.134 1.167-.214 6.45 1.123 6.45.532 0 .784-.547.562-1.215-.223-.667 1.109-2.601 2.96-4.297l3.365-3.082-2.044-2.356L126 52.694l-.032 2.903m-13.718 1.266c-3.802 3.255-3.974 4.402-1.187 7.944 1.955 2.486 1.968 2.656.25 3.259-.997.349-1.82 1.04-1.828 1.535-.009.494-.327 1.387-.707 1.984C107.776 73.157 110.1 80 111.636 80c.716 0 1.074-.591.797-1.313-.6-1.565 2.637-4.728 5.229-5.108 1.312-.193 1.838-1.122 1.838-3.249 0-2.611-.334-2.959-2.708-2.818-1.49.089-2.468-.227-2.175-.702.294-.475 1.062-.798 1.708-.718 2.807.346 3.675-.24 3.675-2.485 0-1.316-.712-2.666-1.582-3-2.209-.848-2.631-.761-1.918.393.34.55.082 1-.573 1-.812 0-1.02-1.273-.654-4 .295-2.2.467-3.982.382-3.959-.085.022-1.618 1.292-3.405 2.822m5.11-.427c-.077 1.339.515 2.686 1.316 2.993 1.09.419 1.376-.11 1.14-2.108-.405-3.415-2.272-4.088-2.456-.885m19.531-1.186c-.657 7.516-.616 9.75.176 9.75.513 0 .933-.45.933-1s.648-1 1.441-1c2.499 0 2.846-2.053.943-5.585-1.886-3.503-3.3-4.379-3.493-2.165m-8.432 5.817c-.92 1.489.147 2.298 2.061 1.564.884-.339 1.327-1.07.984-1.624-.81-1.311-2.215-1.284-3.045.06m-65.495 2.769c.659 1.284 1.472 2.061 1.807 1.726.336-.335-.203-1.386-1.197-2.336-1.728-1.65-1.755-1.623-.61.61m82.703-1.169c-.956.955-.822 2.333.226 2.333.491 0 1.152-.675 1.469-1.5.585-1.524-.481-2.048-1.695-.833M92 66c0 .55.45 1 1 1s1-.45 1-1-.45-1-1-1-1 .45-1 1m33.158 3c0 1.375.227 1.938.504 1.25.278-.687.278-1.812 0-2.5-.277-.687-.504-.125-.504 1.25m-57.259 3.5c1.686 3.262 3.071 5.07 3.063 4-.003-.55-.927-2.125-2.051-3.5-1.359-1.661-1.698-1.828-1.012-.5m28.431 2.59c-.643.782-1.48 2.66-1.86 4.175-.381 1.515-1.14 3.031-1.688 3.37-.625.386-.728-.269-.277-1.76.584-1.928.475-2.142-.579-1.139-.714.68-1.451 2.232-1.636 3.448-.186 1.216-1.045 2.993-1.909 3.948-.865.955-1.641 3.201-1.726 4.992-.134 2.817.384 3.565 3.845 5.55 2.61 1.496 5.651 2.299 8.75 2.31 3.996.013 4.75.318 4.75 1.918 0 1.425 2.634 3.182 10.49 7 11.528 5.603 11.588 5.62 13.31 3.898.933-.933.589-1.471-1.55-2.419l-2.75-1.219 3.051-.081c2.719-.072 3.509-.885 7.26-7.479l4.209-7.398-2.6-5.176c-2.497-4.971-2.674-5.108-4.489-3.466-1.554 1.407-3.919 1.706-13.347 1.688-9.685-.019-11.56.23-12.121 1.614-.555 1.368-.809 1.257-1.555-.678-.633-1.643-1.546-2.223-3.15-2-2.1.292-2.293-.135-2.758-6.101-.396-5.084-.743-6.121-1.67-4.995m19.17 1.237c-2.08 2.602-1.514 3.673 1.941 3.673 1.893 0 3.719-.45 4.059-1 .34-.55-.309-1-1.441-1-1.164 0-2.059-.652-2.059-1.5 0-1.807-1.132-1.885-2.5-.173M125 77c0 .55.45 1 1 1s1-.45 1-1-.45-1-1-1-1 .45-1 1m69 2c-1.333.862-1.333.969 0 .969.825 0 2.175-.436 3-.969 1.333-.862 1.333-.969 0-.969-.825 0-2.175.436-3 .969m-82.648 1.774c-1.181.186-2.377 1.214-2.657 2.284-.28 1.069-.1 1.693.398 1.384.499-.308.907-.177.907.291 0 .468 1.35.833 3 .811 1.65-.022 3-.378 3-.792 0-.414.648-.752 1.441-.752s1.716-.445 2.052-.989c.35-.566-.051-.734-.941-.393-.854.328-1.552.15-1.552-.394 0-1.206-2.735-1.908-5.648-1.45M122 82.5c0 1.375.338 2.5.75 2.5s.75-1.125.75-2.5-.338-2.5-.75-2.5-.75 1.125-.75 2.5m-46 5.083c0 1.766 2.153 1.459 2.771-.395.218-.654-.317-1.188-1.188-1.188-.87 0-1.583.713-1.583 1.583m61.137 2.382c.582 1.668 1.465 2.781 1.963 2.473.965-.596-.423-3.901-2.065-4.917-.56-.345-.517.666.102 2.444M73.5 89c-.34.55-.141 1 .441 1S75 89.55 75 89s-.198-1-.441-1-.719.45-1.059 1M127 99.266c0 1.273 3.866 4.201 4.59 3.477.217-.217-.726-1.37-2.097-2.562-1.511-1.314-2.493-1.674-2.493-.915m63.449 6.484c-.869 2.063-1.831 4.987-2.139 6.5-.512 2.513-.302 2.75 2.44 2.75 1.65 0 4.439-.288 6.198-.64 2.878-.575 3.127-.901 2.479-3.25-.396-1.435-.766-3.6-.823-4.81-.057-1.211-.666-2.673-1.354-3.25-.926-.778-.991-.739-.25.15 1.966 2.359.956 3.107-1.314.974-1.273-1.196-2.617-2.174-2.987-2.174-.37 0-1.382 1.688-2.25 3.75m13.801-.719c-2.667 1.072-2.92 1.802-.558 1.608.93-.076 2.273.986 2.985 2.361.771 1.49 1.299 1.874 1.308.95.008-.852-.544-2.109-1.227-2.792-.988-.988-.938-1.433.25-2.184 1.866-1.18.235-1.146-2.758.057m-1.112 9.636c.609.733 1.488 1.333 1.953 1.333.465 0 .616-.6.335-1.333-.282-.734-1.161-1.334-1.953-1.334-1.088 0-1.17.327-.335 1.334M180 119c0 .55.477 1 1.059 1s.781-.45.441-1-.816-1-1.059-1-.441.45-.441 1m-53.444 4.891c-1.924 3.722-1.984 6.509-.173 8.012 1.067.885 1.517.799 1.969-.377.322-.84 1.026-1.526 1.565-1.526.539 0 2.222-1.151 3.74-2.558 2.196-2.035 2.543-2.903 1.701-4.25-.583-.931-2.451-1.831-4.153-2.001-2.575-.258-3.353.194-4.649 2.7m-6.377 8.942c-1.983 1.853-3.227 4.174-3.613 6.746-.324 2.157-1.005 5.721-1.513 7.921-.511 2.21-.542 4.388-.071 4.868.47.477.723 2.277.562 4-.161 1.723-.082 2.265.175 1.205.256-1.059 1.05-2.859 1.762-4 .713-1.14 1.865-3.862 2.56-6.049.695-2.187 2.069-5.301 3.055-6.922 1.304-2.145 1.525-3.441.812-4.773-.655-1.224-.636-1.829.057-1.829 1.27 0 1.376-2.671.137-3.437-.494-.306-2.26.716-3.923 2.27m27.682-.886c1.298 1.129 1.887 2.053 1.309 2.053-.579 0-1.33-.45-1.67-1-.34-.55-1.068-1-1.618-1-1.854 0 .227 2.015 4.146 4.014 4.881 2.491 5.972 2.493 5.972.012 0-1.984-3.159-4.136-8-5.452l-2.5-.68 2.361 2.053m-60.162 4.688c-.332.332.071 1.278.896 2.103 1.942 1.942 2.615 1.269.974-.974-.697-.953-1.538-1.461-1.87-1.129M94 139.882c0 .55.45 1.278 1 1.618.55.34 1 .168 1-.382s-.45-1.278-1-1.618c-.55-.34-1-.168-1 .382m12.537 11.868c-.377 2.063-1.366 4.807-2.198 6.098l-1.513 2.348-1.47-2.098c-2.52-3.598-3.402-2.294-1.117 1.652 1.194 2.063 2.517 3.994 2.939 4.292.422.298 1.342 3.413 2.045 6.923.705 3.525 1.883 6.58 2.632 6.826.93.306 1.177-.14.789-1.423-.311-1.027-.777-3.098-1.036-4.602-.258-1.503-.752-3.19-1.098-3.75-.345-.559-.247-1.016.218-1.016.466 0 .91-.845.988-1.878.078-1.033.681-3.846 1.34-6.25.991-3.617 1.329-4.027 1.953-2.372.482 1.275.707.116.623-3.198-.15-5.902-.729-5.746-2.604.698-1.577 5.419-2.483 3.979-1.171-1.86.512-2.277.578-4.14.148-4.14-.43 0-1.091 1.688-1.468 3.75m3.542 8.833c.048 1.165.285 1.402.604.605.289-.722.253-1.585-.079-1.917-.332-.332-.568.258-.525 1.312m6.376 1.872c-1.35 1.35-2.455 2.907-2.455 3.461 0 1.62 4.216 5.084 6.189 5.084 2.628 0 2.222-2.073-.939-4.785-1.513-1.298-2.295-2.142-1.739-1.876 1.466.701 4.809-2.013 4.03-3.272-1.025-1.659-2.42-1.279-5.086 1.388m34.741 10.795c-1.146 7.703-1.484 14.934-1.601 34.25-.061 10.076.311 13.177 2.321 19.341 1.316 4.037 3.018 7.58 3.782 7.873 2.206.847 2.427-.157.765-3.488-1.296-2.598-1.418-5.328-.754-16.912.435-7.598.658-21.576.495-31.064-.272-15.896-.438-17.25-2.112-17.25-1.49 0-2.012 1.305-2.896 7.25m-59.806 4.5c-.301.963-1.158 2.895-1.904 4.295-.826 1.55-1.021 3.09-.496 3.938.529.858.342 2.133-.489 3.32-.743 1.059-1.083 2.624-.756 3.476.362.943.181 1.293-.463.895-.633-.391-1.253.648-1.543 2.586-.521 3.484.517 4.768 3.405 4.212.998-.192 2.118.143 2.489.744.39.63.217.809-.409.422-.597-.369-1.4-.163-1.783.457-.953 1.542 1.695 3.037 3.186 1.799 1.76-1.46 2.646.584 1.842 4.249-.52 2.366-.361 2.986.676 2.637 1.595-.537 2.036-7.668.589-9.524-.533-.685-.754-2.369-.492-3.744.272-1.423-.107-2.985-.88-3.626-1.329-1.103-1.215-4.697.223-7.024.452-.731.291-.903-.43-.457-.635.392-1.155.205-1.155-.416 0-.62 1.013-.984 2.25-.809 2.007.286 2.25.887 2.25 5.572 0 2.888.36 5.251.8 5.25.439-.001 2.11-.68 3.711-1.508 2.688-1.39 2.989-1.362 3.912.362.713 1.332.611 2.399-.354 3.718-1.157 1.583-1.589 1.654-2.985.496-.898-.745-1.826-1.161-2.063-.925-.762.763 9.484 9.02 10.693 8.617.716-.239 1.228-3.032 1.325-7.228.135-5.88-.027-6.587-1.16-5.038-1.07 1.464-1.596 1.569-2.809.562-.821-.681-1.767-2.105-2.103-3.163-.336-1.058-.979-1.696-1.43-1.418-.45.278-1.589-.671-2.531-2.109-.943-1.438-1.184-2.287-.536-1.886.785.484.737.022-.143-1.387-.726-1.163-1.478-1.641-1.671-1.063-.193.579-1.647-.992-3.231-3.49-3.065-4.832-4.648-5.63-5.535-2.792m-31.693.643c-.409 1.041-.508 2.129-.221 2.417.913.912 1.715-.583 1.333-2.482-.35-1.74-.404-1.737-1.112.065m49.303 1.56c0 1.686 2.293 6.047 3.18 6.047.776 0 .158-4.405-.877-6.25-.604-1.076-2.303-.926-2.303.203m-55.209 8.954c-2.805 4.295-2.779 7.104.066 7.078 3.637-.034 4.444-1.523 3.522-6.492l-.879-4.731-2.709 4.145M87 197.5c-.694.837-.803 1.5-.245 1.5.55 0 1.56-.675 2.245-1.5.694-.837.803-1.5.245-1.5-.55 0-1.56.675-2.245 1.5m11 5.042c0 .298.9 1.508 2 2.688 2.176 2.336 2.602 1.764.965-1.296-.941-1.757-2.965-2.708-2.965-1.392m-40.841 3.749c2.164 1.691 2.846 5.318.922 4.903-1.108-.24-1.165 0-.259 1.092.638.769 1.052 1.587.919 1.818-.132.231.322-.234 1.009-1.033 1.209-1.406 1.356-1.314 1.625 1.01.069.595 1.25 1.687 2.625 2.428 2.192 1.181 2.285 1.43.75 2.026-.963.373-2.425.42-3.25.103-.825-.316-1.5-.095-1.5.492 0 .717 2.008.833 6.122.356 3.737-.434 6.366-.327 6.75.275.345.542 2.378 2.167 4.518 3.612 3.243 2.191 5.007 2.627 10.625 2.627h6.735l.625-3.125c1.004-5.022.766-5.877-1.625-5.839-2.857.046-8.413 4.436-6.842 5.407 1.648 1.019.315 2.557-2.217 2.557C82.253 225 71 217.437 71 215.798c0-.66-.522-.61-1.422.137-2.019 1.676-5.063-.418-8.093-5.568-1.338-2.273-3.231-4.412-4.208-4.752-1.631-.569-1.641-.514-.118.676M80 215.941c0 .518.445 1.216.989 1.552.566.35.734-.051.393-.941-.665-1.732-1.382-2.049-1.382-.611M143 228c0 .55.45 1 1 1s1-.45 1-1-.45-1-1-1-1 .45-1 1m-1 3.289c0 1.633 2.421 1.735 3.721.157.428-.52.37-.612-.129-.205-.499.408-1.512.24-2.25-.372-1.023-.85-1.342-.75-1.342.42m2.974 3.242c-1.053 1.269-1.05 1.775.015 2.761 1.041.964 1.135.905.466-.292-.708-1.266-.589-1.297.764-.201 2.061 1.669 2.993.212 1.324-2.071-1.15-1.573-1.41-1.593-2.569-.197m7.805 13.844c-.276 1.444-.141 2.625.301 2.625 1.445 0 2.047-1.951 1.115-3.617-.763-1.362-.997-1.198-1.416.992m11.731-.359c.346.559 1.047.758 1.559.441 1.387-.857 1.129-1.457-.628-1.457-.857 0-1.276.457-.931 1.016m5.303-.333c.721.289 1.584.253 1.916-.079.332-.332-.258-.568-1.312-.525-1.165.048-1.402.285-.604.604m3.02 2.085c-.183.423-1.631 1.773-3.218 3-1.587 1.228-2.356 2.232-1.71 2.232 1.921 0 9.095-3.96 9.095-5.02 0-1.151-3.678-1.337-4.167-.212M164 255.059c0 .582.45.781 1 .441s1-.816 1-1.059-.45-.441-1-.441-1 .477-1 1.059" fill="#1976D2" fill-rule="evenodd"/><path fill-opacity=".364" d="M108.11 11.736c-1.56 1.56-3.91 3.335-5.223 3.944-2.115.982-2.187 1.19-.629 1.824 1.074.438 2.824.003 4.5-1.118 1.508-1.009 2.967-1.853 3.242-1.875.275-.023 1.012-.367 1.637-.765s1.75.03 2.5.952c1.182 1.454 1.144 1.594-.288 1.058-1.181-.441-1.559-.138-1.327 1.063.179.925.359 2.244.401 2.931.043.688.726 1.25 1.52 1.25 1.062 0 1.353-.991 1.102-3.75a1082.64 1082.64 0 0 1-.444-4.965c-.055-.668-1.013-1.703-2.128-2.3-1.69-.904-2.499-.613-4.863 1.751m.454 4.971c-.542 1.425-.428 1.54.56.56.684-.679.991-1.486.683-1.793-.308-.308-.867.247-1.243 1.233m7.936 5.058c-1.048.77-1.837 3.235-1.035 3.235.255 0 .946-.9 1.535-2 1.152-2.153 1.06-2.381-.5-1.235m3.111 2.485c.41 1.238.671 4.253.58 6.701-.152 4.082-.032 4.319 1.436 2.851 1.467-1.468 1.46-2.025-.094-6.701-.931-2.806-1.913-5.101-2.181-5.101s-.151 1.012.259 2.25m-3.655 3.09c-1.396 1.295-3.195 2.613-3.998 2.928-1.018.401-.855.591.542.631 2.498.071 6.896-3.211 6.38-4.76-.237-.711-1.36-.25-2.924 1.201m-8.497 4.727c-1.076 1.741.149 2.11 1.521.457.789-.95.865-1.524.201-1.524-.584 0-1.36.48-1.722 1.067M119 37.092c0 .552-1.191 2.107-2.646 3.456-1.605 1.488-2.097 2.446-1.25 2.437 1.967-.022 3.404-1.161 4.395-3.485.821-1.926.868-1.916 1.248.265.218 1.245.791 2.02 1.274 1.722 1.092-.675 3.165 2.994 2.224 3.934-.376.377.044.405.934.064.89-.342 1.908-.154 2.261.418.362.586-.574 1.3-2.149 1.639-1.535.33-3.691 1.028-4.791 1.55-1.479.703-.829.831 2.5.494 5.881-.595 3.219.921-3.883 2.211-4.655.846-5.872.709-9-1.01l-3.617-1.989 2.891 2.674c2.669 2.47 2.766 2.799 1.265 4.301-1.501 1.501-1.876 1.442-4.891-.765-1.796-1.315-2.745-1.742-2.109-.949 1.547 1.927 2.729 10.272 1.914 13.516-.513 2.048-.94 2.362-2.005 1.479-1.023-.849-1.745-.731-2.959.483-.883.883-1.626 1.911-1.651 2.284-.025.374-.289 3.716-.588 7.429L97.823 86h3.007c1.653 0 3.831.309 4.838.687 1.606.603 1.664.481.473-.983-1.6-1.968-2.522-11.704-1.108-11.704.532 0 .967-.81.967-1.8s.509-2.309 1.132-2.932c.623-.623 1.098-3.3 1.055-5.95-.074-4.623.098-4.929 4.262-7.577 2.515-1.6 5.019-2.499 5.958-2.138.89.341 2.268.082 3.062-.577.794-.659 1.904-.914 2.467-.566.562.348 1.922.151 3.02-.437 1.607-.86 2.417-.65 4.137 1.07 1.779 1.779 2.045 2.92 1.583 6.773-.305 2.549-.773 5.534-1.039 6.634-.266 1.1-.518 3.109-.56 4.464-.072 2.299-.189 2.353-1.741.8-1.375-1.374-1.44-1.933-.378-3.214.781-.941.872-1.55.232-1.55-.58 0-1.368.985-1.75 2.188-.503 1.585-.108 2.662 1.433 3.91 2.398 1.942 2.73 3.524.877 4.173-.898.314-.695 1.111.723 2.833 1.086 1.318 1.333 1.834.55 1.146-.782-.687-2.04-1.25-2.794-1.25-1.061 0-1.006.366.244 1.616 1.764 1.763 1.496 4.049-.422 3.609-.66-.151-.914.188-.565.753.684 1.107 3.891-.161 5.017-1.983 1.134-1.835 2.455-1.022 5.07 3.12 1.44 2.282 2.974 3.73 3.444 3.25 1.242-1.268 9.983-18.492 9.983-19.67 0-.553-.862-.225-1.915.728-1.766 1.598-2.107 1.609-4.346.141-2.656-1.74-5.098-6.175-4.2-7.627.311-.503-.133-.646-.987-.319-.854.328-1.552 1.053-1.552 1.611 0 .586-.635.489-1.5-.229-2.111-1.752-2.105-12.831.008-13.641 1.741-.669 7.625 1.891 9.477 4.123 1.006 1.212 1.009 1.82.015 3.018-1.044 1.258-.881 1.5 1.009 1.5 3.001 0 8.63-6.086 9.196-9.942.53-3.612.382-3.665-2.932-1.058-3.454 2.717-11.169 2.735-14.412.033-2.879-2.398-2.252-2.512 2.62-.477 2.049.857 4.829 1.419 6.178 1.25 1.929-.24.318-1.429-7.528-5.556-10.766-5.662-12.117-6.147-10.003-3.589 1.251 1.514 1.18 1.541-.813.3-1.202-.749-1.918-1.834-1.59-2.411.328-.578.258-.747-.155-.376-.413.37-2.51.053-4.66-.706-2.366-.834-3.91-.983-3.91-.376M133 43c0 .55.477 1 1.059 1s.781-.45.441-1-.816-1-1.059-1-.441.45-.441 1m29.25 1.36c-1.579.782-2.257 2.013-2.272 4.127-.012 1.657-.921 4.994-2.019 7.415-1.914 4.218-1.862 8.098.108 8.098.513 0 .933-.723.933-1.607 0-2.631 3.259-15.815 4.164-16.843 1.427-1.622.805 3.525-1.565 12.95-1.245 4.95-2.478 8.358-2.74 7.573-.263-.787-.999-1.105-1.64-.709-1.766 1.092-5.321 9.669-5.717 13.792-.193 2.011-2.092 7.299-4.221 11.75-2.128 4.452-3.512 8.094-3.075 8.094.437 0 .794.675.794 1.5s.459 1.5 1.02 1.5c.56 0 .815-1.125.566-2.5-.25-1.375-.033-2.5.48-2.5.514 0 .934-.477.934-1.06 0-1.541 8.068-18.205 8.571-17.702 1.049 1.048-8.48 28.23-10.433 29.762-.351.275-.697 2.275-.769 4.445-.179 5.368-3.094 7.727-8.727 7.062l-4.142-.489 2.401 1.859c1.968 1.524 2.287 2.435 1.765 5.044-.635 3.174-5.862 8.568-8.324 8.591-.696.006-1.845.595-2.554 1.309-1.053 1.061-.969 1.176.462.631 1.014-.386 1.75-.2 1.75.441 0 .609-.562 1.114-1.25 1.123-.687.01-2.55 2.822-4.14 6.25-1.589 3.429-3.276 7.015-3.75 7.97-1.132 2.287-1.087 3.022.14 2.264 1.388-.858 1.251.084-.25 1.717-.687.748-1.83 2.377-2.539 3.62-1.279 2.243-1.269 2.247 1.276.58 2.373-1.555 2.699-1.559 4.367-.049 1.216 1.1 3.628 1.632 7.403 1.632 3.58 0 6.128.527 7.062 1.462.805.804 1.974 5.192 2.599 9.75 2.831 20.636 4.082 32.754 4.082 39.528 0 7.971 2.12 15.655 6.457 23.409 2.694 4.816 4.948 5.478 7.633 2.243.678-.817 3.066-1.398 5.782-1.407 2.546-.009 5.291-.435 6.102-.948 1.256-.794 1.164-1.272-.625-3.234-6.59-7.23-7.251-18.581-2.9-49.803 2.605-18.689 3.808-22.907 8.388-29.416 4.556-6.475 5.856-12.561 2.273-10.643-1.521.814-1.99.627-2.406-.965-.468-1.79.573-2.452 3.379-2.15.321.035.608-.475.638-1.132.031-.657 1.238-4.262 2.684-8.012 2.838-7.361 2.716-8.682-.807-8.682-6.815 0-25.105-9.514-23.972-12.469.574-1.496 2.452-1.087 8.874 1.932 8.603 4.045 22.5 6.099 22.5 3.326 0-.665 1.012-3.834 2.25-7.041 1.981-5.134 2.519-5.764 4.5-5.271 2.715.677 2.854-.403.46-3.592-2.301-3.067-4.219-7.511-4.178-9.682.018-.937 1.575 1.379 3.459 5.145 1.885 3.766 3.992 7.529 4.683 8.361.691.833 1.272 2.888 1.291 4.568.019 1.694.655 3.262 1.427 3.519 1.412.472 1.265-2.166-.331-5.944-.439-1.039.027-2.332 1.263-3.5 1.078-1.019 2.121-2.609 2.318-3.535.559-2.629 3.836.281 4.297 3.817.206 1.576.67 4.024 1.032 5.44.446 1.748.158 2.989-.897 3.864-1.314 1.091-1.684.938-2.399-.995-.519-1.403-1.111-1.856-1.532-1.174-.682 1.103 2.082 6.575 3.705 7.334.466.219 1.4-.953 2.075-2.603.98-2.397.958-4.284-.113-9.392-.736-3.516-1.277-9.404-1.201-13.086.075-3.681-.28-7.555-.79-8.608-.51-1.053-.903-4.463-.873-7.578.035-3.643-.303-5.382-.946-4.873-.55.434-1.9.427-3-.016-2.779-1.121-3.721-1.114-3.019.022.329.533-1.332.102-3.691-.957-3.777-1.695-5.239-1.525-4.813.561.071.343-1.583 1.521-3.675 2.619-2.091 1.099-4.631 2.967-5.645 4.152-1.429 1.671-1.717 1.762-1.281.406.773-2.41-.003-2.208-4.232 1.101-2.004 1.569-4.95 3.169-6.546 3.558l-2.902.705.702-17.528c.854-21.294.219-23.38-6.148-20.226M120.5 46c-.34.55-.168 1 .382 1s1.278-.45 1.618-1c.34-.55.168-1-.382-1s-1.278.45-1.618 1m13.138 3.5c-.316.825-.139 1.5.393 1.5.533 0 .969-.675.969-1.5s-.177-1.5-.393-1.5c-.216 0-.652.675-.969 1.5m-4.888 4.641c.688.692 1.257 2.181 1.265 3.309.012 1.59.216 1.734.908.641 1.139-1.8.39-3.759-1.75-4.573-1.341-.51-1.425-.387-.423.623m10.814 1.152c.376.986.935 1.541 1.243 1.233.308-.307.001-1.114-.683-1.793-.988-.98-1.102-.865-.56.56m-19.947 13.518c-.409.661-.213 1.189.441 1.189.709 0 .953.85.615 2.144-.412 1.573-.265 1.848.55 1.033.766-.766.803-1.803.12-3.334-.673-1.509-1.227-1.84-1.726-1.032m6.383 6.13c0 .518.45 1.219 1 1.559.55.34 1-.084 1-.941S127.55 74 127 74s-1 .423-1 .941m66.299.309c-.52.688-.989 2.158-1.043 3.269-.084 1.758.41 1.97 3.83 1.644 3.698-.352 6.702-2.163 3.59-2.163-.794 0-1.678-.9-1.966-2-.587-2.244-2.973-2.65-4.411-.75m-67.319 4.274c-.696.838-1.071 1.718-.835 1.955.237.236.98-.449 1.651-1.524 1.452-2.325.968-2.58-.816-.431m61.687.143c-1.117 1.116-.749 2 .833 2 .825 0 1.5-.6 1.5-1.334 0-1.419-1.229-1.77-2.333-.666m6.583 1.995c-1.477.596-1.707 7.338-.25 7.338.55 0 1 .9 1 2s.45 2 1 2c1.393 0 1.253-3.347-.2-4.8-.933-.933-.6-1.2 1.5-1.2 2.897 0 3.306-.999 1.665-4.066-1.024-1.912-2.285-2.252-4.715-1.272M120 83c0 .55.45 1 1 1s1-.45 1-1-.45-1-1-1-1 .45-1 1m49.667.667c-.956.955-.822 2.333.226 2.333.491 0 1.152-.675 1.469-1.5.585-1.524-.481-2.048-1.695-.833m-58.917 2.995c.688.278 1.813.278 2.5 0 .688-.277.125-.504-1.25-.504s-1.937.227-1.25.504m75.502 2.838c.011 2.2.216 2.982.455 1.738.239-1.244.23-3.044-.02-4s-.446.062-.435 2.262M182.5 91c-.375 1.183-.458 2.376-.183 2.651.275.275.808-.468 1.183-1.651s.458-2.376.183-2.651c-.275-.275-.808.468-1.183 1.651M77.861 92.967c-1.299 1.081-1.889 1.981-1.311 2 .577.018 1.593-.51 2.258-1.175.943-.943 1.625-.67 3.119 1.25 1.052 1.352 5.222 6.731 9.266 11.953 4.044 5.222 8.788 10.397 10.542 11.5 1.753 1.103 3.205 2.594 3.226 3.314.022.72.489 1.031 1.039.691.55-.34 1-.141 1 .441s.927 1.059 2.059 1.059c1.132 0 1.784.445 1.448.989-.35.566.051.734.941.393.854-.328 1.552-1.576 1.552-2.775 0-1.585.613-2.185 2.25-2.204 1.237-.014 2.518.365 2.845.844.863 1.262 5.905-.231 5.905-1.748 0-.707.675-1.544 1.5-1.861 1.979-.759 1.909-2.267-.141-3.054-1.383-.53-1.439-.386-.359.916 1.081 1.303 1.023 1.446-.371.911-.91-.349-2.246-.144-2.97.457-.907.753-2.374.787-4.73.112-4.212-1.208-6.231-1.176-3.179.051 1.237.498 2.25 1.373 2.25 1.945 0 1.256-3.451-.589-6.504-3.476-1.163-1.1-3.546-3.125-5.296-4.5-1.75-1.375-3.186-3.03-3.191-3.679-.005-.648-.716-1.885-1.58-2.75-1.429-1.428-1.402-1.571.3-1.571 1.029 0 2.351.48 2.938 1.067.755.755 1.032.391.95-1.25-.065-1.275-.679-2.272-1.367-2.217-.687.055-2.361.167-3.719.25-1.891.115-2.324.559-1.852 1.9.483 1.375.343 1.499-.654.578-.698-.644-1.889-.934-2.647-.643-.758.291-1.378.114-1.378-.394C92 101.028 82.401 91 81.192 91c-.534 0-2.033.885-3.331 1.967m-5.403 3.1c-.511.829-.357.989.465.481.945-.585 1.068.368.527 4.095-.805 5.544-1.243 6.603-2.431 5.869-.464-.287-.719.268-.568 1.233.154.975.98 1.63 1.86 1.473.872-.155 2.083.65 2.693 1.789.915 1.71.679 2.58-1.351 4.994-2.768 3.289-4.218 10.66-5.08 25.809-.291 5.12-.79 9.733-1.11 10.25-.751 1.214 3.585 1.196 5.513-.024 1.256-.794 1.129-1.402-.852-4.082-1.696-2.295-2.029-3.449-1.226-4.252.606-.606 1.102-2.552 1.102-4.325 0-1.936.95-4.353 2.379-6.05 1.308-1.555 2.545-3.69 2.75-4.744.204-1.055 1.046-2.101 1.871-2.326 1.311-.358 1.314-.28.029.612-.809.562-1.232 1.261-.94 1.554 1.064 1.063 5.03-2.572 4.105-3.763-1.13-1.454-3.11-8.887-3.772-14.16-.566-4.509-3.271-13.566-4.432-14.837-.42-.461-1.11-.279-1.532.404M179 96c0 .55.45 1 1 1s1-.45 1-1-.45-1-1-1-1 .45-1 1M78.512 97.75c.184.963.369 2.339.411 3.059.044.738.588.993 1.247.586.787-.486.961-.178.531.941-.43 1.121-.121 1.664.947 1.664 1.146 0 1.454.684 1.114 2.465-.259 1.356.026 2.633.633 2.837.764.258.704.859-.193 1.946-1.295 1.569-.809 9.524.84 13.752.107.275.187.725.178 1-.009.275 1.78 1.764 3.977 3.308 2.196 1.544 3.676 2.296 3.289 1.669-.847-1.37-3.413-11.863-3.419-13.977-.006-2.507 2.842 1.947 4.003 6.26 1.553 5.769 6.626 12.299 11.131 14.331 2.598 1.171 4.182 1.426 4.625.745.371-.571 2.538-2.204 4.817-3.631 2.278-1.427 5.196-4.082 6.483-5.9l2.341-3.305-2.557 1.657c-3.631 2.354-5.949 2.485-9.61.541-3.74-1.984-5.9-2.155-6.895-.543-.393.634-.286.889.238.565.524-.323 1.535-.228 2.247.212.901.557.507.95-1.298 1.295-1.763.337-2.592.06-2.592-.866 0-.748-.51-1.361-1.133-1.361-1.416 0-4.574-3.569-6.592-7.451-1.89-3.635-3.742-5.549-5.37-5.549-.681 0-.942-.296-.58-.658.362-.362.196-1.215-.369-1.895-.564-.68-.917-1.621-.784-2.092C86.612 107.804 80.609 96 79.38 96c-.661 0-1.052.787-.868 1.75M92.5 101c.34.55.816 1 1.059 1s.441-.45.441-1-.477-1-1.059-1-.781.45-.441 1m46.93 2.663c-1.612 2.015-3.645 4.827-4.52 6.25-.874 1.423-2.779 3.712-4.232 5.087-3.247 3.071-3.497 4.767-.404 2.74 1.251-.819 3.501-1.556 5-1.636 5.005-.268 5.641-.432 5.096-1.314-.298-.483-.015-1.512.628-2.288 2.981-3.592 4.497-8.013 3.515-10.252-.543-1.237-1.25-2.25-1.57-2.25-.321 0-1.902 1.648-3.513 3.663m2.57.896c0 .857.45 1.281 1 .941.55-.34 1-1.041 1-1.559s-.45-.941-1-.941-1 .702-1 1.559m20.224 1.617c-.859.859-.88 1.534-.078 2.5 1.857 2.237 3.623 1.566 3.099-1.176-.529-2.766-1.259-3.086-3.021-1.324M83.5 113c.34.55.816 1 1.059 1s.441-.45.441-1-.477-1-1.059-1-.781.45-.441 1m115.255 3.5c.263 1.375.651 2.5.862 2.5.21 0 .383-1.125.383-2.5s-.388-2.5-.861-2.5c-.474 0-.647 1.125-.384 2.5m3.686.032c1.068.807 2.418 1.454 3 1.436.583-.017.185-.692-.882-1.5-1.068-.807-2.418-1.454-3-1.436-.583.017-.185.692.882 1.5m-77.373 6.372c-1.137 1.598-2.068 3.314-2.068 3.813 0 .5-1.35 2.202-3 3.783s-2.985 3.352-2.967 3.937c.056 1.776 8.385-8.038 9.63-11.347 1.451-3.854 1.05-3.9-1.595-.186m33.932-.022c0 2.607 1.541 3.56 1.729 1.068.079-1.051-.278-2.171-.793-2.489-.515-.319-.936.321-.936 1.421m-8.698.318c-.564.715-1.297 2.438-1.628 3.83-.542 2.278-1.004 2.491-4.638 2.145-2.402-.229-4.036.041-4.036.668 0 1.33 16.082 10.157 18.506 10.157 1.736 0 1.736-.075-.006-2-.995-1.1-1.446-2-1.002-2 .444 0-.048-.787-1.095-1.75-1.175-1.08-1.95-3.218-2.025-5.586-.142-4.481-2.431-7.549-4.076-5.464m-79.459 5.05-.351 5.052c-.234 3.353 1.186 2.265 1.697-1.302.197-1.375.91-2.387 1.585-2.25.674.137 1.226-.65 1.226-1.75 0-2.95-3.95-2.712-4.157.25M94.5 134c-.34.55-.141 1 .441 1S96 134.55 96 134s-.198-1-.441-1-.719.45-1.059 1m2.531 3.5c0 .55.436 1.675.969 2.5.533.825.969 1.05.969.5s-.436-1.675-.969-2.5c-.533-.825-.969-1.05-.969-.5M149 139.059c0 .582.45.781 1 .441s1-.141 1 .441.787 1.045 1.75 1.027c1.583-.029 1.565-.171-.191-1.5-2.29-1.732-3.559-1.878-3.559-.409m-23.444 2.497c-.944 1.439-1.491 2.843-1.216 3.118.275.275 1.272-.679 2.216-2.118.943-1.44 1.49-2.843 1.215-3.118-.275-.275-1.272.678-2.215 2.118m39.545.806c-.625 1.575-1.058 3.375-.961 4 .096.626-.103 1.813-.442 2.638-3.309 8.035-4.437 12.028-3.079 10.901 2.134-1.771 6.023-7.416 4.432-6.432-1.059.654-1.191.216-.623-2.07.396-1.594 1.139-3.05 1.652-3.234.513-.185.676-.751.362-1.258-.313-.507.098-1.59.914-2.406 1.09-1.09 1.591-1.161 1.888-.268.223.669.679.17 1.013-1.108.501-1.917.278-2.237-1.277-1.83-1.036.271-2.077-.022-2.313-.651-.236-.629-.94.144-1.566 1.718M114 141.811c0 1.656-4.062 5.102-5.406 4.587-.765-.294-1.686-.059-2.045.522-.397.643-.045.824.899.462 1.164-.447 1.586.118 1.688 2.261.113 2.358.212 2.464.57.607.506-2.629 2.294-3.047 2.294-.536 0 1.498.174 1.53 1.375.25 1.642-1.749 2.9-8.964 1.562-8.964-.515 0-.937.365-.937.811m-9 1.13c0 .518.445 1.216.989 1.552.566.35.734-.051.393-.941-.665-1.732-1.382-2.049-1.382-.611m39-.141c0 .66-.648 1.2-1.441 1.2s-1.76.516-2.149 1.146c-.505.817.122.937 2.189.419 3.674-.922 4.044-1.322 2.584-2.782-.911-.911-1.183-.907-1.183.017m-41.635.824c-1.164.478-.424 5.853 1.158 8.413.493.798.384 1.024-.293.605-.593-.366-1.233.127-1.422 1.096-.281 1.444-.986 1.102-3.908-1.901-3.873-3.98-5.13-3.875-7.466.627-1.853 3.573-1.949 3.347 1.816 4.311 3.805.974 9.362 8.577 10.388 14.212.351 1.932 1.577 4.849 2.724 6.481 1.147 1.632 2.178 3.604 2.292 4.381.114.777.663 1.868 1.221 2.426 1.728 1.728-.011-3.539-2.034-6.16-1.013-1.312-1.841-3.8-1.841-5.529 0-4.485-6.022-16.124-8.25-15.947-.963.076-1.75-.247-1.75-.719 0-.471-.675-.598-1.5-.282-.826.317-1.5.03-1.5-.639 0-.794.858-1 2.473-.595 2.05.514 2.372.319 1.878-1.142-.328-.969 1.054.031 3.073 2.222 2.999 3.256 3.84 3.713 4.608 2.5 1.98-3.129 2.226-7.941.539-10.517-.91-1.388-1.384-2.961-1.054-3.495.645-1.043.584-1.061-1.152-.348M89 147.167c0 .458.423.833.941.833s1.173-.375 1.456-.833c.283-.459-.14-.834-.941-.834-.801 0-1.456.375-1.456.834m-1.436 3.54c-.542 1.425-.428 1.54.56.56.684-.679.991-1.486.683-1.793-.308-.308-.867.247-1.243 1.233M92 152c0 .55.45 1 1 1s1-.45 1-1-.45-1-1-1-1 .45-1 1m18.997 11.509c-1.76 5.331-.703 6.231 1.221 1.04.928-2.502 1.293-4.549.812-4.549-.481 0-1.396 1.579-2.033 3.509m10.462.558c-.363.586-.445 1.281-.183 1.543s.743-.218 1.069-1.067c.676-1.762.1-2.072-.886-.476m30.44 3.683c-1.176 3.073-2.988 28.332-2.938 40.936.051 12.727 4.102 27.314 7.586 27.314 1.645 0 1.962-3.091.469-4.584-1.132-1.132-1.131-1.065-.501-28.916.581-25.697-.089-37.5-2.13-37.5-.789 0-1.908 1.238-2.486 2.75M93.333 178.5c0 .825.375 1.5.834 1.5.458 0 .833.653.833 1.45 0 .798.753 1.872 1.673 2.387 1.237.692 1.693 2.398 1.75 6.549.042 3.087.302 5.604.577 5.592.275-.013 1.545-.826 2.822-1.809l2.322-1.786L99 184.691c-2.83-4.23-5.262-7.691-5.406-7.691-.143 0-.261.675-.261 1.5m49.682 9.75c.009.688.381 1.825.827 2.528.588.928 1.127.585 1.963-1.25 1.021-2.24.927-2.528-.826-2.528-1.089 0-1.972.563-1.964 1.25m-33.622 10.332c.334.87.607 1.77.607 2 0 .23.408.418.906.418.499 0 .671-.9.384-2-.288-1.1-.969-2-1.514-2-.544 0-.717.712-.383 1.582m-1.319 4.829c-1.504 1.812.162 2.966 2.988 2.069 1.631-.517 1.806-.934.868-2.064-1.48-1.784-2.379-1.785-3.856-.005m-12.343 3.509c-.435 1.663-.305 2.054.437 1.312.582-.582.86-1.647.62-2.369-.25-.749-.703-.295-1.057 1.057m27.832 8.371c.375.985.29 1.697-.19 1.582-1.718-.412-8.373 1.367-8.373 2.238 0 1.272 2.555 1.098 6.282-.428 3.318-1.358 8.191-1.544 9.377-.357 1.359 1.359 2.547.627 1.341-.826-.685-.825-2.45-1.5-3.922-1.5-1.473 0-3.245-.562-3.937-1.25-1.01-1.002-1.124-.895-.578.541M70 218c0 .55.45 1 1 1s1-.45 1-1-.45-1-1-1-1 .45-1 1m20.5 7c-1.666.716-1.448.871 1.309.93 1.966.041 3.058-.336 2.691-.93-.72-1.166-1.287-1.166-4 0m46.5 9.393c0 .216.698.661 1.552.989.89.341 1.291.173.941-.393-.587-.951-2.493-1.406-2.493-.596" fill="#1976D2" fill-rule="evenodd"/></svg>